# xmcd CD database file
#
# Track frame offsets:
#	150
#	14460
#	31186
#	49921
#	67424
#	87854
#	107529
#	123185
#	140297
#	160477
#	178919
#	197162
#	218592
#	239601
#	255183
#
# Disc length: 3818 seconds
#
# Revision: 0
# Processed by: cddbd v1.5.2PL0 Copyright (c) Steve Scherf et al.
# Submitted via: CDex 1.75
#
DISCID=d10ee80f
DTITLE=Point Blank - Guitarology
DYEAR=2015
DGENRE=Blues
TTITLE0=Dragi Jelic - Moj put
TTITLE1=Sky Wikhluh - Bolesno se volimo
TTITLE2=Bajaga - Kad mesec prospe rekom srebra sjaj
TTITLE3=Lole Savic - Imam ovaj zivot
TTITLE4=Dejan Cukic - Novi Sad
TTITLE5=Dado Topic - Tu negde zivi ona
TTITLE6=Nesa Milosavljevic - Prijatelj
TTITLE7=Oliver Nektarijevic - Vreme
TTITLE8=Nikola Vranjkovic - Zagledan u put
TTITLE9=Cane Kostic - Svi dani
TTITLE10=Dr - Zlatni uvojci
TTITLE11=Vlada Jet - Novi dan
TTITLE12=Najda Najdanovic - Mamurluk
TTITLE13=Djule Djukic - Nervozan
TTITLE14=Bora Djordjevic - Nisan znao da sam zao
EXTD=YEAR: 2015
EXTT0=
EXTT1=
EXTT2=
EXTT3=
EXTT4=
EXTT5=
EXTT6=
EXTT7=
EXTT8=
EXTT9=
EXTT10=
EXTT11=
EXTT12=
EXTT13=
EXTT14=
PLAYORDER=
